<?xml version="1.0" encoding="iso-8859-1"?>
<!-- Uploaded to: SVG Repo, www.svgrepo.com, Generator: SVG Repo Mixer Tools -->
<svg version="1.1" id="Layer_1" xmlns="http://www.w3.org/2000/svg" xmlns:xlink="http://www.w3.org/1999/xlink" 
	 viewBox="0 0 512 512" xml:space="preserve">
<path style="fill:#353185;" d="M443.165,139.884H68.835c-13.466,0-25.768-10.402-28.007-23.68l-5.173-30.681
	c-0.775-4.597,2.323-8.95,6.918-9.726c4.592-0.776,8.95,2.323,9.726,6.918l5.173,30.681c0.863,5.119,6.173,9.608,11.363,9.608
	h374.329c5.19,0,10.5-4.489,11.363-9.608l5.173-30.681c0.774-4.597,5.127-7.699,9.726-6.918c4.596,0.774,7.694,5.129,6.918,9.726
	l-5.173,30.681C468.934,129.482,456.631,139.884,443.165,139.884z"/>
<path style="fill:#FF7039;" d="M415,61.093C409.284,27.537,377.248,0,343.209,0H168.791C134.752,0,102.716,27.537,97,61.093
	c-7.087,41.599-12.604,100.297-12.604,168.037S89.913,355.569,97,397.169c5.716,33.556,37.752,61.093,71.791,61.093h174.418
	c34.04,0,66.075-27.537,71.791-61.093c7.087-41.6,12.604-100.298,12.604-168.038S422.087,102.693,415,61.093z"/>
<g>
	<circle style="fill:#FFD117;" cx="358.49" cy="262.887" r="33.758"/>
	<circle style="fill:#FFD117;" cx="153.499" cy="262.887" r="33.758"/>
</g>
<path style="fill:#0E0A57;" d="M221.439,369.792v107.647C221.439,496.527,236.913,512,256,512s34.561-15.474,34.561-34.561V369.792
	H221.439z"/>
<path style="fill:#FFB367;" d="M256,299.887c-29.749,0-53.865,24.116-53.865,53.865v27.295h107.728v-27.295
	C309.865,324.003,285.749,299.887,256,299.887z"/>
<rect x="188.484" y="33.758" style="fill:#FFFFFF;" width="135.033" height="161.612"/>
<path style="fill:#FFF0B2;" d="M381.721,66.763c-2.995-17.581-20.992-33.004-38.513-33.004h-2.813v161.615h52.984
	C391.661,133.704,385.578,89.402,381.721,66.763z"/>
<path style="fill:#FFFFFF;" d="M171.604,33.758h-2.813c-17.519,0-35.517,15.423-38.513,33.005
	c-3.857,22.639-9.94,66.941-11.659,128.61c0.002,0,52.985,0,52.985,0V33.758z"/>
</svg>